<svg width="561" height="460" viewBox="0 0 561 460" fill="none" xmlns="http://www.w3.org/2000/svg">
<path d="M284.58 419.73L302.181 414.544L297.045 432.195L302.181 449.796L284.58 444.661L266.929 449.796L272.114 432.195L266.929 414.544L284.58 419.73Z" fill="black"/>
<path d="M98.5285 332.704L130.005 349.854L98.5285 367.142L81.3097 398.549L64.0909 367.142L32.615 349.854L64.0909 332.704L81.3097 301.16L98.5285 332.704Z" fill="black"/>
<path d="M120.581 91.6953C120.581 100.256 113.642 107.195 105.081 107.195C96.5208 107.195 89.5812 100.256 89.5812 91.6953C89.5812 83.1349 96.5208 76.1953 105.081 76.1953C113.642 76.1953 120.581 83.1349 120.581 91.6953Z" fill="#B9FF66"/>
<path d="M404.581 422.195C404.581 427.718 400.104 432.195 394.581 432.195C389.058 432.195 384.581 427.718 384.581 422.195C384.581 416.672 389.058 412.195 394.581 412.195C400.104 412.195 404.581 416.672 404.581 422.195Z" fill="#B9FF66"/>
<path d="M78.5812 51.6953C78.5812 64.674 68.0599 75.1953 55.0812 75.1953C42.1025 75.1953 31.5812 64.674 31.5812 51.6953C31.5812 38.7166 42.1025 28.1953 55.0812 28.1953C68.0599 28.1953 78.5812 38.7166 78.5812 51.6953Z" fill="black"/>
<path d="M279.553 370.785C273.249 372.939 266.045 368.67 263.539 361.267L224.54 247.005L247.329 239.21L286.366 353.628C288.872 360.953 285.818 368.631 279.553 370.785Z" fill="black"/>
<path d="M276.147 372.195C274.306 372.195 272.427 371.764 270.626 370.863C266.984 369.062 264.087 365.693 262.677 361.541L223.679 247.279C223.522 246.848 223.757 246.339 224.227 246.182L247.015 238.387C247.25 238.309 247.485 238.309 247.681 238.426C247.877 238.544 248.033 238.701 248.111 238.936L287.149 353.354C289.773 361.11 286.484 369.297 279.788 371.608C278.653 371.999 277.4 372.195 276.147 372.195ZM225.636 247.553L264.361 360.992C265.614 364.714 268.198 367.769 271.409 369.336C273.993 370.589 276.773 370.824 279.279 369.963C285.074 367.965 287.893 360.757 285.544 353.902L246.78 240.307L225.636 247.553Z" fill="black"/>
<path d="M243.295 140.577L169.566 193.184L140.865 222.993L129.588 242.931L129.549 243.088C127.317 246.535 128.609 254.486 132.799 262.595C136.91 270.586 142.705 276.148 146.777 276.461L146.66 276.54L168.313 278.89L208.838 272.427L294.862 241.638L401.795 259.97L402.539 260.009C375.679 254.996 339.421 219.076 313.069 168.271C286.757 117.505 278.378 67.3274 289.929 42.5713H289.89L243.882 139.324L243.295 140.577Z" fill="#B9FF66"/>
<path d="M420.31 257.798C446.738 244.068 441.628 181.824 408.896 118.772C376.165 55.7202 328.207 15.7367 301.78 29.4666C275.352 43.1965 280.463 105.441 313.194 168.493C345.925 231.545 393.883 271.528 420.31 257.798Z" fill="white"/>
<path d="M408.687 261.381C397.176 261.381 383.315 254.957 368.397 242.461C348.075 225.461 328.145 199.255 312.287 168.624C288.285 122.245 278.379 74.6917 287.071 47.4678C289.969 38.3802 294.824 32.0345 301.441 28.6266C314.597 21.8892 333.118 27.6081 353.635 44.765C373.957 61.7652 393.887 87.9706 409.744 118.602C433.786 164.981 443.692 212.534 434.96 239.758C432.063 248.846 427.208 255.192 420.59 258.599C417.027 260.48 413.033 261.381 408.687 261.381ZM313.423 27.6081C309.39 27.6081 305.631 28.4307 302.263 30.1934C296.038 33.3663 291.496 39.3986 288.755 48.0554C280.18 74.8875 290.047 121.932 313.853 167.919C346.274 230.475 393.808 270.507 419.846 257.15C426.072 253.977 430.614 247.945 433.355 239.288C441.93 212.456 432.063 165.412 408.257 119.425C380.026 64.9772 340.401 27.6081 313.423 27.6081Z" fill="black"/>
<path d="M408.687 261.381C397.176 261.381 383.315 254.957 368.397 242.461C348.075 225.461 328.145 199.255 312.287 168.624C288.285 122.245 278.379 74.6917 287.071 47.4678C289.969 38.3802 294.824 32.0345 301.441 28.6266C310.251 24.0827 321.762 25.2187 334.723 31.8778C347.135 38.2626 360.565 49.5831 373.643 64.5855C373.956 64.9381 373.917 65.4865 373.565 65.7999C373.212 66.1132 372.664 66.0741 372.351 65.7215C345.804 35.2465 318.943 21.615 302.263 30.1934C296.038 33.3663 291.496 39.3986 288.755 48.0554C280.18 74.8875 290.047 121.932 313.853 167.919C342.045 222.327 381.709 259.735 408.648 259.735C412.681 259.735 416.44 258.913 419.807 257.15C426.033 253.977 430.575 247.945 433.316 239.288C441.891 212.456 432.024 165.412 408.217 119.425C401.13 105.715 393.142 92.8278 384.567 81.1157C384.293 80.724 384.372 80.1756 384.763 79.9014C385.155 79.6272 385.703 79.7056 385.977 80.0973C394.63 91.8877 402.618 104.853 409.783 118.642C433.786 164.981 443.692 212.534 434.96 239.758C432.063 248.846 427.208 255.192 420.59 258.599C417.027 260.48 413.033 261.381 408.687 261.381Z" fill="black"/>
<path d="M360.348 177.534C366.47 174.353 365.292 159.946 357.717 145.354C350.143 130.762 339.039 121.512 332.917 124.692C326.794 127.873 327.972 142.281 335.547 156.872C343.122 171.464 354.225 180.715 360.348 177.534Z" fill="#B9FF66"/>
<path d="M357.668 179.043C350.934 179.043 341.536 170.347 334.763 157.225C329.124 146.336 326.814 135.133 328.889 128.669C329.633 126.398 330.847 124.792 332.531 123.93C339.187 120.522 350.581 129.805 358.491 145.043C364.129 155.932 366.439 167.135 364.364 173.599C363.62 175.87 362.406 177.476 360.722 178.338C359.783 178.808 358.765 179.043 357.668 179.043ZM335.585 124.909C334.763 124.909 333.979 125.066 333.314 125.418C332.022 126.084 331.082 127.338 330.495 129.179C328.576 135.211 330.808 145.944 336.25 156.442C343.455 170.347 354.301 179.709 359.9 176.811C361.192 176.145 362.132 174.891 362.719 173.05C364.638 166.979 362.367 156.285 356.964 145.787C350.62 133.605 341.536 124.909 335.585 124.909Z" fill="#B9FF66"/>
<path d="M402.736 246.77C392.634 246.77 380.496 241.129 367.418 230.2C349.641 215.315 332.178 192.361 318.317 165.568C297.291 124.987 288.638 83.3483 296.234 59.4932C298.779 51.5023 303.047 45.94 308.881 42.9238C322.272 36.0689 341.967 43.9815 362.954 64.6246C363.307 64.9771 363.307 65.4863 362.954 65.8389C362.602 66.1914 362.093 66.1914 361.74 65.8389C341.301 45.7442 322.311 37.91 309.664 44.4515C304.26 47.2327 300.306 52.4424 297.878 60.0024C290.4 83.4266 299.014 124.556 319.844 164.785C344.473 212.378 379.125 245.046 402.697 245.046C406.221 245.046 409.471 244.302 412.446 242.813C417.85 240.032 421.804 234.822 424.232 227.262C431.711 203.838 423.097 162.709 402.266 122.48C395.962 110.337 388.914 98.9384 381.318 88.6364C381.044 88.2447 381.122 87.6963 381.514 87.4221C381.905 87.1479 382.453 87.2262 382.728 87.6179C390.402 98.0374 397.489 109.475 403.832 121.697C424.859 162.278 433.512 203.917 425.916 227.772C423.371 235.763 419.103 241.325 413.269 244.341C410.058 245.947 406.534 246.77 402.736 246.77Z" fill="black"/>
<path d="M168.352 279.713C168.313 279.713 168.274 279.713 168.274 279.713L146.621 277.362C146.504 277.362 146.386 277.323 146.269 277.245C141.805 276.54 136.167 270.899 132.056 262.987C127.67 254.643 126.378 246.496 128.767 242.657L128.806 242.539L140.082 222.562C140.122 222.484 140.161 222.445 140.2 222.406L168.901 192.596C168.94 192.557 168.979 192.518 169.018 192.479L242.552 139.99L289.068 42.1798C289.186 41.984 289.342 41.8273 289.577 41.749C289.812 41.6706 290.047 41.6706 290.243 41.7881C290.673 41.984 290.869 42.4932 290.673 42.9241C278.888 68.1894 288.207 118.407 313.814 167.84C339.461 217.352 375.21 254.016 402.736 259.07C403.166 259.148 403.48 259.54 403.441 260.01C403.401 260.441 403.01 260.754 402.579 260.793L401.835 260.754C401.796 260.754 401.757 260.754 401.718 260.754L294.981 242.461L209.152 273.171C209.113 273.171 209.035 273.21 208.996 273.21L168.47 279.673C168.431 279.713 168.392 279.713 168.352 279.713ZM147.248 275.717L168.352 277.989L208.682 271.526L294.667 240.777C294.824 240.738 294.941 240.698 295.098 240.738L391.185 257.189C365.225 245.791 334.88 212.143 312.365 168.663C290.008 125.497 280.023 81.6642 285.505 53.9703L244.079 140.93C244 141.047 243.922 141.165 243.805 141.243L170.154 193.85L141.57 223.502L130.294 243.479C130.294 243.519 130.254 243.558 130.254 243.558C128.218 246.731 129.589 254.565 133.543 262.203C137.42 269.685 143.019 275.326 146.856 275.6C147.013 275.6 147.13 275.639 147.248 275.717Z" fill="black"/>
<path d="M243.412 140.264L289.889 42.5322H289.928C278.377 67.2883 286.796 117.466 313.069 168.232C339.42 219.076 375.678 254.996 402.617 259.931L401.873 259.892L295.096 241.599L292.63 241.168C280.217 238.975 263.655 222.836 251.791 199.804C239.613 176.184 237.46 152.642 242.863 141.439L243.412 140.264Z" fill="white"/>
<path d="M402.617 260.793L401.834 260.754C401.795 260.754 401.756 260.754 401.716 260.754L294.94 242.461L292.473 242.03C279.356 239.719 262.715 222.915 251.008 200.235C237.734 174.46 237.069 151.506 242.081 141.086L242.668 139.911L289.145 42.2189C289.263 42.023 289.419 41.8664 289.654 41.788C289.889 41.7097 290.124 41.7097 290.32 41.8272C290.75 42.023 290.946 42.5323 290.751 42.9632C278.965 68.2284 288.284 118.446 313.891 167.879C339.538 217.392 375.287 254.056 402.813 259.109C403.244 259.187 403.557 259.579 403.518 260.049C403.4 260.44 403.048 260.793 402.617 260.793ZM285.425 53.9702L244.195 140.656L243.608 141.831C238.635 152.172 240.084 175.283 252.535 199.412C264.007 221.661 280.179 238.113 292.787 240.307L295.253 240.737L391.145 257.189C365.185 245.79 334.839 212.143 312.325 168.663C289.967 125.496 279.983 81.6641 285.425 53.9702Z" fill="black"/>
<path d="M167.177 279.595C167.138 279.595 167.099 279.595 167.099 279.595L146.582 277.401C146.464 277.401 146.347 277.362 146.229 277.284C141.766 276.579 136.127 270.938 132.016 263.026C127.67 254.643 126.378 246.496 128.767 242.657L128.806 242.539L140.082 222.562C140.317 222.131 140.826 222.014 141.257 222.249C141.687 222.484 141.805 222.993 141.57 223.424L130.294 243.479C130.294 243.519 130.254 243.558 130.254 243.558C128.218 246.731 129.589 254.565 133.543 262.203C137.42 269.685 143.019 275.326 146.856 275.6C146.974 275.6 147.13 275.639 147.208 275.717L167.256 277.872C167.725 277.911 168.078 278.342 168 278.812C167.96 279.242 167.608 279.595 167.177 279.595Z" fill="black"/>
<path d="M168.547 278.733C161.891 278.263 152.572 268.823 145.798 255.779C138.633 241.952 136.949 227.654 141.335 222.562L129.627 242.931L129.549 243.088C127.317 246.535 128.609 254.486 132.799 262.595C136.91 270.586 142.705 276.148 146.777 276.461L146.66 276.54L168.547 278.733Z" fill="white"/>
<path d="M168.548 279.595C168.509 279.595 168.509 279.595 168.469 279.595C168.313 279.595 168.117 279.556 167.96 279.556L146.582 277.401C146.464 277.401 146.347 277.362 146.229 277.284C141.766 276.579 136.127 270.938 132.016 263.026C127.67 254.643 126.378 246.496 128.767 242.657L128.806 242.539L139.103 224.599C139.495 223.581 140.004 222.68 140.63 221.935C140.904 221.583 141.413 221.544 141.766 221.779C142.118 222.053 142.235 222.523 142 222.915L140.552 225.382C138.242 231.611 140.513 243.832 146.464 255.27C152.925 267.765 161.735 276.892 168.039 277.715L168.509 277.754C168.978 277.793 169.331 278.224 169.292 278.694C169.331 279.243 168.978 279.595 168.548 279.595ZM147.208 275.717L162.165 277.245C156.41 273.563 150.066 265.964 145.015 256.171C140.121 246.731 137.693 236.938 138.085 229.887L130.294 243.479C130.294 243.519 130.254 243.558 130.254 243.558C128.218 246.731 129.589 254.565 133.543 262.203C137.42 269.685 143.019 275.326 146.856 275.6C146.974 275.6 147.13 275.639 147.208 275.717Z" fill="black"/>
<path d="M207.389 272.583L209.112 272.231C199.793 274.189 185.071 260.088 174.695 240.071C164.083 219.624 162.087 199.216 169.604 193.184L168.625 194.163L141.413 222.444C136.949 227.458 138.593 241.834 145.798 255.74C152.728 269.136 162.556 278.694 169.252 278.655L207.389 272.583Z" fill="black"/>
<path d="M169.214 279.556C162.087 279.556 152.181 269.959 145.015 256.171C137.733 242.069 135.892 227.341 140.748 221.896L167.452 194.163C167.921 193.536 168.47 192.988 169.057 192.518C169.409 192.244 169.918 192.283 170.232 192.596C170.545 192.949 170.545 193.458 170.232 193.771L168.705 195.377C163.262 202.663 165.964 221.309 175.478 239.68C185.737 259.5 200.068 273.093 208.839 271.447L208.956 271.408C209.426 271.33 209.857 271.604 209.974 272.074C210.052 272.544 209.778 272.975 209.309 273.093C209.269 273.093 209.23 273.093 209.191 273.132L207.586 273.445H207.547L169.409 279.517C169.331 279.517 169.253 279.556 169.214 279.556ZM165.181 199.02L142.04 223.071C137.733 227.929 139.691 242.108 146.582 255.387C153.317 268.392 162.831 277.793 169.214 277.832L202.887 272.466C193.803 269.254 182.605 257.15 173.951 240.502C165.729 224.638 162.557 208.5 165.181 199.02Z" fill="black"/>
<path d="M332.922 124.674C326.775 127.808 327.675 142.34 335.507 156.833C348.624 181.08 359.078 178.221 360.292 177.79C360.331 177.79 360.331 177.829 360.292 177.829L337.778 195.965C331.16 186.682 324.856 176.34 319.061 165.177C313.54 154.483 308.881 143.828 305.2 133.487L332.922 124.674Z" fill="black"/>
<path d="M337.777 196.827C337.738 196.827 337.699 196.827 337.66 196.827C337.425 196.788 337.229 196.67 337.073 196.474C330.299 186.956 323.995 176.536 318.317 165.608C312.875 155.11 308.176 144.416 304.417 133.84C304.339 133.605 304.339 133.37 304.456 133.174C304.574 132.978 304.73 132.821 304.965 132.743L332.687 123.93C333.118 123.812 333.588 124.008 333.744 124.439C333.901 124.87 333.744 125.34 333.353 125.536C332.022 126.202 331.043 127.533 330.455 129.492C328.537 135.642 330.886 146.531 336.329 156.52C349.132 180.179 358.999 177.476 360.057 177.085C360.448 176.928 360.918 177.124 361.114 177.476C361.31 177.829 361.231 178.338 360.918 178.612L338.326 196.631C338.169 196.748 337.973 196.827 337.777 196.827ZM306.336 134.036C310.055 144.259 314.597 154.6 319.844 164.785C325.326 175.361 331.434 185.428 337.973 194.712L357.512 178.965C353.048 178.769 344.63 175.44 334.763 157.225C329.046 146.688 326.696 135.563 328.772 128.865C329.046 128.003 329.359 127.259 329.75 126.554L306.336 134.036Z" fill="black"/>
<path d="M448.768 68.7927C466.668 59.389 473.591 37.3112 464.231 19.4805C454.872 1.64985 432.773 -5.18156 414.873 4.22213C396.973 13.6258 390.05 35.7036 399.409 53.5343C408.769 71.365 430.868 78.1964 448.768 68.7927Z" fill="black"/>
<path d="M415.148 28.4305C416.871 26.0802 419.416 24.6309 422.314 24.3175C424.507 24.0825 426.543 24.5526 428.461 25.7277C429.44 26.3152 430.302 27.0595 431.124 27.9604C431.711 26.9028 432.416 25.9627 433.238 25.1793C434.843 23.6125 436.762 22.7115 438.916 22.4765C441.813 22.1631 444.632 23.0249 446.825 24.9443C448.979 26.8245 450.349 29.5664 450.701 32.6609C451.054 35.8338 450.192 38.8891 448 42.2578C446.042 45.274 443.066 48.4077 439.62 52.0898C438.446 53.3432 437.115 54.7534 435.744 56.2419C435.392 56.6336 434.883 56.9078 434.335 56.947C433.786 57.0253 433.277 56.8686 432.807 56.5552C431.124 55.3801 429.518 54.2833 428.109 53.3432C423.958 50.5229 420.356 48.0943 417.772 45.5874C414.874 42.8062 413.386 39.9859 413.034 36.8131C412.721 33.7186 413.465 30.7416 415.148 28.4305Z" fill="white"/>
<path d="M550.316 70.7876C563.421 57.678 563.421 36.4232 550.316 23.3136C537.212 10.204 515.966 10.204 502.861 23.3136C489.757 36.4232 489.757 57.678 502.861 70.7876C515.966 83.8972 537.212 83.8972 550.316 70.7876Z" fill="#B9FF66"/>
<path d="M526.583 81.4683C507.632 81.4683 492.165 66.0349 492.165 47.037C492.165 28.0783 507.592 12.6057 526.583 12.6057C545.573 12.6057 561 28.0391 561 47.037C561 65.9958 545.573 81.4683 526.583 81.4683ZM526.583 14.3292C508.571 14.3292 493.888 28.9792 493.888 47.037C493.888 65.0557 508.532 79.7448 526.583 79.7448C544.594 79.7448 559.277 65.0948 559.277 47.037C559.277 29.0184 544.633 14.3292 526.583 14.3292Z" fill="#B9FF66"/>
<path d="M535.666 50.3666C533.787 50.3666 532.142 51.2675 531.046 52.6777L519.73 48.2514C519.73 48.0947 519.769 47.9772 519.769 47.8205C519.769 47.5463 519.73 47.2721 519.691 46.9979L531.281 41.6315C532.338 42.8458 533.904 43.6292 535.666 43.6684C538.877 43.6684 541.539 41.0439 541.539 37.7927C541.539 34.5415 538.916 31.8779 535.666 31.8779C532.456 31.8779 529.793 34.5023 529.793 37.7535C529.793 38.0277 529.832 38.3019 529.871 38.5761L518.281 43.9426C517.224 42.7283 515.658 41.9448 513.896 41.9057C510.685 41.9057 508.023 44.5301 508.023 47.7813C508.023 51.0325 510.646 53.6961 513.896 53.6961C515.775 53.6961 517.42 52.7952 518.516 51.385L529.832 55.8114C529.832 55.968 529.793 56.0856 529.793 56.2422C529.793 59.4934 532.416 62.1571 535.666 62.1571C538.877 62.1571 541.539 59.5326 541.539 56.2814C541.5 53.0302 538.877 50.4058 535.666 50.3666Z" fill="black"/>
<path d="M536.111 177.188C551.477 166.518 555.338 145.478 544.734 130.194C534.129 114.91 513.076 111.17 497.709 121.84C482.343 132.51 478.482 153.55 489.086 168.834C499.691 184.118 520.744 187.858 536.111 177.188Z" fill="black"/>
<path d="M508.455 165.568L503.522 138.814C503.287 137.443 504.54 136.308 505.871 136.66L535.042 144.925C536.53 145.356 536.882 147.275 535.668 148.215L511.392 166.704C510.335 167.566 508.73 166.978 508.455 165.568Z" fill="white"/>
<path d="M516.579 286.777C535.556 277.535 543.496 254.748 534.315 235.881C525.134 217.014 502.307 209.211 483.331 218.453C464.355 227.694 456.415 250.481 465.596 269.348C474.777 288.216 497.603 296.018 516.579 286.777Z" fill="#B9FF66"/>
<path d="M499.762 291.542C495.69 291.542 491.539 290.915 487.506 289.544C477.639 286.254 469.651 279.36 465.031 270.037C460.411 260.754 459.706 250.217 463.034 240.346C469.925 220.016 492.087 208.93 512.487 215.707C522.354 218.997 530.342 225.891 534.962 235.214C539.583 244.498 540.287 255.035 536.959 264.906C531.399 281.201 516.09 291.542 499.762 291.542ZM500.153 215.472C484.53 215.472 469.886 225.343 464.6 240.933C461.429 250.373 462.094 260.44 466.519 269.293C470.943 278.185 478.579 284.805 488.015 287.938C507.515 294.402 528.697 283.825 535.276 264.397C538.447 254.956 537.782 244.889 533.357 236.037C528.932 227.145 521.297 220.525 511.861 217.391C507.984 216.06 504.03 215.472 500.153 215.472Z" fill="black"/>
<path d="M519.419 246.456C519.028 255.975 502.935 278.224 499.098 283.434C498.706 283.982 497.884 283.943 497.531 283.355C495.104 279.438 487.077 266.277 482.887 255.622C481.204 251.392 480.146 247.553 480.264 244.85C480.695 234.039 489.818 225.617 500.625 226.048C511.431 226.558 519.85 235.645 519.419 246.456Z" fill="black"/>
<path d="M506.174 252.022C509.676 248.519 509.676 242.839 506.174 239.336C502.673 235.833 496.995 235.833 493.494 239.336C489.992 242.839 489.992 248.519 493.494 252.022C496.995 255.525 502.673 255.525 506.174 252.022Z" fill="#B9FF66"/>
</svg>
