<svg width="127" height="28" viewBox="0 0 127 28" fill="none" xmlns="http://www.w3.org/2000/svg">
<path fill-rule="evenodd" clip-rule="evenodd" d="M126.467 21.4969C121.212 29.3942 112.888 27.1027 110.389 25.3085C109.325 25.9483 107.459 27.3506 104.972 27.1886C99.674 26.844 97.7768 20.1343 97.7768 20.1343C97.8149 20.1611 96.1988 20.6285 95.3254 20.6202C95.3141 22.5878 93.395 27.2882 88.2157 27.2281C82.4037 27.1609 81.2222 19.4867 81.2222 19.4867C81.2222 19.4867 80.6438 20.1985 78.4447 20.9075C78.5554 19.3958 78.4745 26.998 71.5086 27.1097C66.0016 27.1982 64.5151 19.3684 64.5151 19.3684C64.5151 19.3684 63.5598 20.2479 61.7083 20.553C61.826 19.0167 61.6347 27.1355 54.668 27.1097C49.96 27.0924 48.3511 22.2866 48.4762 21.6195C48.6359 20.7695 46.8851 27.2293 42.312 27.1286C40.4248 27.0795 39.0179 25.8685 38.135 24.254C36.9531 25.4525 35.2372 27.1286 33.3123 27.1286C29.857 27.1286 28.3337 24.5673 28.5917 17.2515C28.6137 16.3838 28.5431 16.0425 27.5699 15.9127C26.9857 15.8264 26.3875 15.6628 25.7545 15.5766C25.5516 16.1766 23.8309 26.9334 17.914 27.1376C15.929 27.2061 14.8437 25.6821 13.9523 24.551C12.5859 26.153 10.7822 27.1886 8.21267 27.1886C3.86008 27.1886 0.894531 24.0701 0.894531 20.2231C0.894531 16.3761 3.86008 13.2578 8.21267 13.2578C8.98225 13.2578 9.19829 13.3556 9.90135 13.5374C8.45549 1.87006 11.87 0.0466204 14.857 0.0466204C17.7247 0.0466204 22.6239 5.94563 15.7304 20.9087C17.2608 25.3717 20.5603 25.1193 22.1458 15.9318C22.4685 14.0643 21.6057 11.5441 22.9477 11.1924C25.401 10.5496 25.6613 12.4782 26.8116 12.7996C28.0279 13.1392 28.7378 13.106 29.9055 13.3221C31.9007 13.6675 32.6793 14.6174 32.4362 16.7332C32.1443 19.4103 31.6336 23.3068 33.1907 23.7817C34.3135 24.1267 36.3635 22.0629 36.7233 20.9337C37.0829 19.8045 37.158 19.4181 37.1899 18.5899C37.2386 16.8197 37.2996 15.5222 37.6402 14.1835C37.786 13.6655 37.9521 13.3224 38.6134 13.299C39.1575 13.2867 40.1526 13.1415 40.5906 13.4436C41.1744 13.8324 41.1015 14.2269 41.0344 15.2652C40.3555 30.0689 45.5814 22.6788 47.1396 16.7615C46.5848 10.0705 46.9657 0.169145 51.6966 0.00308165C54.157 -0.0832806 55.2447 1.66365 55.3643 2.96758C55.7028 6.65035 53.8071 12.7508 51.3141 16.8533C49.8893 25.2243 57.5438 26.8795 58.7678 20.1978C56.7652 19.3538 54.6008 15.938 56.362 14.2733C57.3503 13.3391 61.4641 14.6812 61.5314 17.6084C63.5493 17.1301 63.8188 16.1203 63.8467 16.2876C63.292 9.59658 63.8065 0.169231 68.5377 0.00316714C70.9978 -0.0831951 72.0853 1.66374 72.205 2.96767C72.5434 6.65043 70.6478 12.7509 68.1551 16.8535C66.7301 25.2243 74.3847 26.8796 75.6085 20.1979C74.1257 19.9443 70.9958 16.3111 72.8017 14.2734C73.7668 13.1845 77.8655 15.449 78.3244 17.7053C80.2629 17.2191 80.5262 16.2414 80.554 16.406C79.9991 9.71516 80.5136 0.287811 85.2448 0.121748C87.7048 0.0353854 88.7924 1.78232 88.912 3.08625C89.2505 6.769 87.3548 12.8696 84.8618 16.9721C83.4372 25.3431 91.0916 26.998 92.3157 20.3163C90.2781 20.0156 87.3823 16.1794 89.713 14.2169C90.6442 13.4327 94.2022 15.4682 95.0351 17.7904C96.1923 17.7509 96.9127 17.3972 97.0671 17.3615C95.2196 9.50664 96.595 0.0819546 101.684 0.00328231C104.435 -0.0391984 107.125 1.32133 105.944 8.79419C104.817 15.9242 100.767 18.9163 100.777 18.9621C101.012 19.8163 103.091 26.9648 108.324 23.193C108.053 22.6493 107.782 22.0939 107.63 21.421C106.763 17.5013 108.467 13.074 113.098 12.3585C115.751 11.9485 118.251 13.0934 118.646 15.6746C119.296 19.8981 114.993 22.9569 113.357 23.6204C112.624 23.2514 120 27.4443 124.378 19.0416C124.632 18.5618 124.938 18.6025 125.334 18.8497C125.614 19.0244 127.209 20.3635 126.467 21.4969ZM11.3788 19.1853C11.156 18.5951 10.6989 17.2946 10.5373 16.7311C9.64705 16.045 9.01163 15.9336 7.86893 15.9336C5.3295 15.9336 3.83483 18.0145 3.83483 20.2583C3.83483 22.502 5.46316 24.5832 8.00261 24.5832C10.2033 24.5832 11.8783 23.2571 12.3893 21.3797C12.0316 20.6479 11.6768 19.9753 11.3788 19.1853ZM14.7948 3.13504C13.0105 3.13504 12.4052 6.9076 12.5226 10.126C12.6266 12.9714 13.5237 15.4764 13.989 16.5989C14.1072 16.7395 14.0852 16.648 14.1907 16.7971C17.2889 10.7808 16.0039 3.13504 14.7948 3.13504ZM51.9514 3.25355C49.6452 3.01913 49.6601 11.5337 49.9464 13.4436C51.1442 11.7454 53.2248 3.7108 51.9514 3.25355ZM68.792 3.25355C66.4858 3.01913 66.5007 11.5337 66.7872 13.4436C67.9848 11.7454 70.0656 3.7108 68.792 3.25355ZM85.4993 3.37201C83.1929 3.1376 83.2078 11.6522 83.4943 13.5623C84.6919 11.8639 86.7727 3.82923 85.4993 3.37201ZM101.939 2.75512C98.3458 3.39461 99.1825 14.0125 99.7282 15.8748C103.961 10.7226 104.048 2.56159 101.939 2.75512ZM115.405 16.0239C115.222 15.3469 114.309 14.9851 113.679 15.0743C111.874 15.2926 110.125 17.2841 110.802 20.316C110.953 20.9912 111.33 21.6128 111.324 21.5921C115.361 19.1913 115.705 17.2995 115.405 16.0239ZM39.3207 10.9554C38.805 10.9555 38.301 10.82 37.8722 10.5662C37.4434 10.3123 37.1092 9.95151 36.9117 9.5293C36.7143 9.10711 36.6627 8.6425 36.7633 8.19427C36.8638 7.74602 37.1121 7.33429 37.4767 7.01111C37.8413 6.68793 38.3058 6.46784 38.8115 6.37867C39.3172 6.28949 39.8415 6.33524 40.3179 6.51014C40.7943 6.68502 41.2014 6.9812 41.4879 7.3612C41.7743 7.7412 41.9272 8.18796 41.9272 8.64496C41.9272 8.94835 41.8599 9.24879 41.7288 9.52908C41.5979 9.80939 41.406 10.0641 41.1638 10.2786C40.9217 10.4932 40.6345 10.6634 40.3182 10.7795C40.002 10.8956 39.6631 10.9554 39.3207 10.9554Z" fill="#191A23"/>
</svg>
