<svg width="129" height="32" viewBox="0 0 129 32" fill="none" xmlns="http://www.w3.org/2000/svg">
<path d="M13.8877 5.1062V14.1939H4.47079V5.1062H0V26.7995H4.47079V18.0069H13.8877V26.7995H18.3585V5.1062H13.8877Z" fill="#191A23"/>
<path d="M32.6667 19.7867C32.6667 20.6561 32.2771 21.4899 31.5834 22.1046C30.8898 22.7194 29.949 23.0647 28.9681 23.0647C27.9872 23.0647 27.0464 22.7194 26.3528 22.1046C25.6591 21.4899 25.2695 20.6561 25.2695 19.7867V10.4951H21.0287V19.7867C21.0287 21.6511 21.8643 23.4392 23.3518 24.7575C24.8393 26.0759 26.8568 26.8165 28.9604 26.8165C31.0641 26.8165 33.0815 26.0759 34.569 24.7575C36.0565 23.4392 36.8922 21.6511 36.8922 19.7867V10.4951H32.6667V19.7867Z" fill="#191A23"/>
<path d="M64.0881 11.4527C64.0881 9.54816 65.5097 8.94439 67.0672 8.94439C68.3223 8.94439 69.9805 9.79084 71.0648 10.8178L73.8424 7.91738C72.4558 6.25554 69.6432 5.10622 67.341 5.10622C62.741 5.10622 59.4136 7.49415 59.4136 11.4527C59.4136 18.797 69.5424 16.4673 69.5424 20.5773C69.5424 21.845 68.1537 22.9652 66.5634 22.9652C64.0553 22.9652 63.2426 21.878 62.0904 20.7287L59.0084 23.569C60.9798 25.7143 63.4112 26.8034 66.3246 26.8034C70.6946 26.8034 74.2104 24.3863 74.2104 20.6084C74.2104 12.4545 64.0815 14.988 64.0815 11.4527" fill="#191A23"/>
<path d="M126.749 23.3339C124.243 23.3339 123.532 22.3729 123.532 20.9013V14.3878H127.426V11.0874H123.532V6.73286L119.232 8.44324V21.7108C119.232 25.1044 121.873 26.8148 125.496 26.8148C126.065 26.824 126.633 26.7837 127.192 26.6944L128.241 23.2717C127.768 23.3008 127.225 23.33 126.749 23.33" fill="#191A23"/>
<path d="M48.8095 10.6046C46.7088 10.6046 45.2434 11.1443 43.8261 12.3771V5.23664H39.5788V18.4712C39.5788 23.4257 43.6202 26.8193 48.1611 26.8193C53.1992 26.8193 57.6306 23.3655 57.6306 18.7139C57.6306 14.1205 53.5519 10.6066 48.8095 10.6066V10.6046ZM48.7832 23.0316C47.8301 23.0316 46.8984 22.7811 46.1059 22.3118C45.3134 21.8425 44.6957 21.1754 44.331 20.395C43.9662 19.6145 43.8708 18.7558 44.0567 17.9272C44.2427 17.0987 44.7016 16.3377 45.3756 15.7404C46.0496 15.143 46.9082 14.7363 47.8431 14.5715C48.7779 14.4067 49.7468 14.4912 50.6274 14.8145C51.508 15.1378 52.2606 15.6852 52.7901 16.3876C53.3196 17.09 53.6023 17.9158 53.6023 18.7605C53.6023 19.8933 53.0946 20.9796 52.1908 21.7806C51.2871 22.5816 50.0613 23.0316 48.7832 23.0316Z" fill="#191A23"/>
<path d="M94.9278 18.515C94.9278 13.8557 90.5052 10.4096 85.4584 10.4096C80.9175 10.4096 76.876 13.8032 76.876 18.7577V32.0001H81.1234V24.8499C82.5384 26.0807 84.0061 26.6224 86.1045 26.6224C90.8469 26.6224 94.9256 23.1103 94.9256 18.515H94.9278ZM90.9061 18.4684C90.9061 19.3132 90.6235 20.139 90.0939 20.8413C89.5644 21.5437 88.8118 22.0912 87.9312 22.4144C87.0506 22.7377 86.0817 22.8223 85.1469 22.6575C84.2121 22.4927 83.3534 22.0859 82.6794 21.4886C82.0055 20.8912 81.5465 20.1302 81.3605 19.3017C81.1746 18.4732 81.27 17.6144 81.6348 16.834C81.9995 16.0535 82.6172 15.3865 83.4097 14.9171C84.2022 14.4478 85.1339 14.1973 86.087 14.1973C87.3651 14.1973 88.5909 14.6473 89.4946 15.4483C90.3984 16.2493 90.9061 17.3357 90.9061 18.4684Z" fill="#191A23"/>
<path d="M108.606 10.3496V6.60661C109.165 6.37558 109.637 6.00875 109.969 5.54887C110.301 5.08898 110.479 4.55495 110.481 4.00901V3.92164C110.479 3.15869 110.136 2.42756 109.527 1.88807C108.919 1.34858 108.094 1.04459 107.233 1.04254H107.134C106.274 1.04459 105.449 1.34858 104.84 1.88807C104.231 2.42756 103.888 3.15869 103.886 3.92164V4.00901C103.889 4.55495 104.066 5.08898 104.398 5.54887C104.73 6.00875 105.203 6.37558 105.761 6.60661V10.3496C104.156 10.5671 102.645 11.1565 101.38 12.0581L89.7835 4.06143C89.8661 3.79763 89.9102 3.52557 89.915 3.25186C89.9158 2.60947 89.7017 1.98128 89.2998 1.44673C88.8978 0.912174 88.326 0.495267 87.6567 0.248727C86.9874 0.00218587 86.2507 -0.0629153 85.5396 0.0616553C84.8286 0.186226 84.1752 0.494874 83.662 0.948568C83.1489 1.40226 82.7991 1.98063 82.6569 2.61052C82.5146 3.24042 82.5863 3.89355 82.8629 4.48734C83.1394 5.08112 83.6085 5.58888 84.2106 5.94641C84.8128 6.30394 85.5211 6.49518 86.2459 6.49595C86.8825 6.49385 87.5073 6.34319 88.0574 6.05913L99.4589 13.9257C98.432 15.2989 97.8962 16.9146 97.9216 18.5619C97.947 20.2091 98.5324 21.8113 99.6013 23.1591L96.1316 26.2343C95.853 26.1557 95.563 26.1138 95.2707 26.11C94.675 26.11 94.0927 26.2666 93.5974 26.5599C93.1021 26.8532 92.716 27.2701 92.488 27.7579C92.2601 28.2457 92.2004 28.7824 92.3167 29.3002C92.4329 29.818 92.7197 30.2937 93.1409 30.667C93.5622 31.0403 94.0988 31.2946 94.6831 31.3976C95.2674 31.5006 95.873 31.4477 96.4233 31.2457C96.9737 31.0436 97.4441 30.7015 97.775 30.2625C98.106 29.8235 98.2826 29.3074 98.2826 28.7794C98.2786 28.5204 98.2314 28.2633 98.1424 28.0165L101.575 24.9743C102.695 25.7328 103.997 26.2544 105.379 26.4993C106.762 26.7441 108.189 26.7058 109.553 26.3871C110.916 26.0685 112.179 25.478 113.246 24.6607C114.312 23.8434 115.154 22.8209 115.707 21.6713C116.259 20.5217 116.508 19.2754 116.435 18.0275C116.361 16.7796 115.967 15.5631 115.282 14.4709C114.597 13.3786 113.639 12.4395 112.482 11.7253C111.326 11.0111 110 10.5405 108.606 10.3496ZM107.185 22.6621C106.246 22.6621 105.327 22.4152 104.546 21.9527C103.765 21.4902 103.157 20.8329 102.797 20.0638C102.438 19.2947 102.344 18.4484 102.527 17.632C102.71 16.8155 103.163 16.0655 103.827 15.4769C104.491 14.8883 105.337 14.4874 106.258 14.325C107.179 14.1626 108.134 14.2459 109.002 14.5645C109.87 14.8831 110.612 15.4225 111.133 16.1147C111.655 16.8069 111.934 17.6206 111.934 18.4531C111.934 19.5694 111.433 20.6399 110.543 21.4293C109.652 22.2186 108.444 22.6621 107.185 22.6621Z" fill="#191A23"/>
</svg>
