<svg width="127" height="30" viewBox="0 0 127 30" fill="none" xmlns="http://www.w3.org/2000/svg">
<path d="M18.177 28.0663C16.2929 28.3595 14.3757 28.4474 12.3924 28.6816L6.34306 12.9786V29.3555C4.45896 29.5313 2.7401 29.7656 0.955078 30V0H5.97967L12.8551 17.0217V0H18.177V28.0663ZM28.5896 10.9863C30.6392 10.9863 33.7794 10.8984 35.6635 10.8984V15.5858C33.3165 15.5858 30.573 15.5858 28.5896 15.6737V22.6465C31.6969 22.4708 34.8042 22.2362 37.9443 22.1483V26.6597L23.3006 27.6854V0H37.9443V4.68751H28.5896V10.9863ZM57.6123 4.68762H52.1252V26.2501C50.3401 26.2501 48.5551 26.2501 46.8365 26.3085V4.68762H41.3493V0H57.6126L57.6123 4.68762ZM66.2067 10.6642H73.446V15.3516H66.2067V25.9864H61.0167V0H75.793V4.68751H66.2067V10.6642ZM84.3874 21.8848C87.3955 21.9432 90.4364 22.1486 93.3785 22.2948V26.9238C88.6517 26.66 83.9247 26.3966 79.0986 26.3085V0H84.3874V21.8848ZM97.841 27.2461C99.5268 27.3341 101.312 27.422 103.031 27.5975V0H97.841V27.2461ZM126.203 0L119.492 14.2676L126.203 30C124.219 29.7656 122.236 29.4433 120.253 29.1503L116.451 20.4786L112.584 28.4474C110.667 28.1542 108.816 28.0663 106.899 27.8319L113.708 14.0917L107.56 0H113.245L116.716 7.88088L120.418 0H126.203Z" fill="#191A23"/>
</svg>
