<svg width="146" height="35" viewBox="0 0 146 35" fill="none" xmlns="http://www.w3.org/2000/svg">
<path d="M51.2809 28.7744V14.2194H51.5735L63.5274 28.7744H67.2891V7.40015H63.1094V21.9185H62.8168L50.8629 7.40015H47.1012V28.7744H51.2809ZM79.1177 29.1044C84.6349 29.1044 88.0205 25.9514 88.0205 20.672C88.0205 15.4293 84.6349 12.2396 79.1177 12.2396C73.6423 12.2396 70.2149 15.4293 70.2149 20.672C70.2567 25.9514 73.6005 29.1044 79.1177 29.1044ZM79.1177 26.0247C76.1919 26.0247 74.52 24.0816 74.52 20.672C74.52 17.2991 76.1919 15.3193 79.1177 15.3193C82.0435 15.3193 83.7154 17.2991 83.7154 20.672C83.7154 24.0816 82.0435 26.0247 79.1177 26.0247ZM91.824 8.61001V12.6796H88.8982V15.6126H91.824V24.4483C91.824 27.6012 93.4959 28.8478 97.7591 28.8478C98.5533 28.8478 99.3474 28.7744 99.9744 28.6645V25.8048C99.4728 25.8414 99.1385 25.8781 98.5533 25.8781C96.7978 25.8781 96.0037 25.1815 96.0037 23.5684V15.6126H99.9744V12.6796H96.0037V8.61001H91.824ZM102.482 28.7744H106.662V12.5696H102.482V28.7744ZM104.572 9.8932C105.951 9.8932 107.08 8.90331 107.08 7.69345C107.08 6.44692 105.951 5.45703 104.572 5.45703C103.193 5.45703 102.064 6.44692 102.064 7.69345C102.064 8.90331 103.193 9.8932 104.572 9.8932ZM118.114 29.1044C123.632 29.1044 127.017 25.9514 127.017 20.672C127.017 15.4293 123.632 12.2396 118.114 12.2396C112.639 12.2396 109.212 15.4293 109.212 20.672C109.212 25.9514 112.555 29.1044 118.114 29.1044ZM118.114 26.0247C115.189 26.0247 113.517 24.0816 113.517 20.672C113.517 17.2991 115.189 15.3193 118.114 15.3193C120.998 15.3193 122.712 17.2991 122.712 20.672C122.67 24.0816 120.998 26.0247 118.114 26.0247ZM129.483 28.7744H133.663V19.3522C133.663 16.9691 135.251 15.4659 137.717 15.4659C140.267 15.4659 141.437 16.7124 141.437 19.1688V28.7744H145.617V18.2889C145.617 14.4027 143.36 12.2396 139.264 12.2396C136.505 12.2396 134.666 13.3395 133.788 15.1726H133.496V12.5696H129.441C129.483 12.5696 129.483 28.7744 129.483 28.7744Z" fill="#191A23"/>
<path fill-rule="evenodd" clip-rule="evenodd" d="M7.02498 6.0321C8.24149 6.9019 8.6815 6.83323 10.9592 6.69589L32.4163 5.55142C32.8822 5.55142 32.494 5.13941 32.3387 5.09363L28.7668 2.82758C28.0939 2.36979 27.1621 1.82044 25.4279 1.95778L4.66962 3.30825C3.919 3.37692 3.7637 3.72026 4.0743 3.97205L7.02498 6.0321ZM8.31914 10.4498V30.4094C8.31914 31.4852 8.91445 31.8743 10.2863 31.8056L33.8658 30.5925C35.2376 30.5238 35.3929 29.7913 35.3929 28.9215V9.09928C35.3929 8.22949 35.0047 7.74881 34.1764 7.81747L9.53565 9.09928C8.62974 9.16795 8.31914 9.57996 8.31914 10.4498ZM31.5881 11.5256C31.7434 12.1207 31.5881 12.7387 30.9151 12.8074L29.7763 13.0134V27.7542C28.7927 28.212 27.8868 28.4866 27.1103 28.4866C25.8938 28.4866 25.5832 28.1433 24.6773 27.1362L17.2488 16.813V26.7928L19.6042 27.2506C19.6042 27.2506 19.6042 28.4638 17.7147 28.4638L12.4863 28.7384C12.331 28.4638 12.4863 27.8 13.004 27.6626L14.3758 27.3193V14.135L12.4863 13.9976C12.331 13.4025 12.7193 12.5327 13.7805 12.464L19.3971 12.1207L27.1362 22.5583V13.3338L25.1691 13.1278C25.0138 12.3954 25.635 11.846 26.3856 11.7773L31.5881 11.5256ZM2.93544 1.4771L24.5479 0.0808408C27.1879 -0.125164 27.8868 0.0121729 29.5433 1.08798L36.4282 5.3683C37.5671 6.10077 37.9553 6.30677 37.9553 7.1079V30.6154C37.9553 32.0803 37.36 32.9501 35.2376 33.0874L10.1568 34.4379C8.55209 34.5066 7.80148 34.3006 6.97322 33.3621L1.87424 27.5253C0.968325 26.4495 0.580078 25.6484 0.580078 24.7099V3.81182C0.580078 2.59868 1.20127 1.61443 2.93544 1.4771Z" fill="#191A23"/>
</svg>
