<svg width="111" height="22" viewBox="0 0 111 22" fill="none" xmlns="http://www.w3.org/2000/svg">
<path fill-rule="evenodd" clip-rule="evenodd" d="M90.4746 6.59723C90.8968 7.24286 91.035 7.97743 91.0806 8.80324L91.1405 9.90393V17.6007L91.2018 18.7025C91.3243 20.502 92.8216 21.8325 94.8675 21.9457L96.1042 22V9.90393L96.1655 8.80324C96.2163 7.98667 96.3531 7.23824 96.7819 6.58799C97.2188 5.92103 97.8459 5.36767 98.6004 4.98348C99.3549 4.59928 100.21 4.39777 101.08 4.39918C101.95 4.40058 102.805 4.60485 103.558 4.99148C104.311 5.37811 104.936 5.93348 105.37 6.60185C105.792 7.24748 105.924 7.99591 105.974 8.80324L106.036 9.90046V17.6007L106.097 18.7025C106.225 20.5112 107.71 21.8418 109.763 21.9457L110.999 22V8.80324C110.999 6.46969 109.954 4.23166 108.092 2.58127C106.231 0.930875 103.706 0.00323181 101.073 0.00231305C99.664 0.000995875 98.2707 0.266231 96.9863 0.780298C95.702 1.29437 94.5563 2.04543 93.6256 2.98331C92.6946 2.0458 91.5488 1.29492 90.2646 0.780697C88.9804 0.266477 87.5873 0.000728203 86.1781 0.00115785C84.1165 0.00115785 82.2034 0.555547 80.6188 1.51302C79.6519 0.556701 77.4886 0.00115785 76.2467 0.00115785V22L77.4886 21.9457C79.5659 21.8244 81.0671 20.5297 81.1479 18.7025L81.2143 17.6007V9.90393L81.2756 8.80324C81.3277 7.97281 81.458 7.24286 81.8816 6.59261C82.3188 5.92606 82.9457 5.37284 83.6996 4.98817C84.4536 4.60351 85.3082 4.40086 86.1781 4.40046C87.0487 4.40063 87.9039 4.60368 88.658 4.98925C89.4121 5.37482 90.0386 5.92935 90.4746 6.59723ZM5.50475 21.9469L6.74666 22H25.3623L25.301 20.9028C25.1329 19.0941 23.6877 17.7728 21.6405 17.655L20.3985 17.6007H9.23048L24.1204 4.39931L24.0591 3.30324C23.9627 1.47606 22.4562 0.155925 20.3985 0.0554414L19.1566 0.00577766L0.541016 0.00115785L0.602264 1.10185C0.765159 2.89322 2.23121 4.24223 4.26153 4.34618L5.50475 4.40046H16.6728L1.78293 17.6018L1.84417 18.7025C1.96667 20.5159 3.44315 21.8291 5.50475 21.9457V21.9469ZM71.3742 3.22123C72.5269 4.2426 73.4412 5.45521 74.065 6.7898C74.6889 8.1244 75.0099 9.55484 75.0099 10.9994C75.0099 12.444 74.6889 13.8744 74.065 15.209C73.4412 16.5436 72.5269 17.7562 71.3742 18.7776C69.0455 20.8399 65.8881 21.9983 62.5961 21.9983C59.3041 21.9983 56.1468 20.8399 53.8181 18.7776C48.9716 14.4823 48.9716 7.51659 53.8181 3.22123C54.9696 2.20021 56.3369 1.39022 57.8417 0.837517C59.3465 0.284816 60.9594 0.000228005 62.5883 2.6516e-06C64.2199 -0.00100129 65.8356 0.283085 67.3432 0.836013C68.8508 1.38894 70.2206 2.19986 71.3742 3.22239V3.22123ZM67.8622 6.33621C69.2581 7.57436 70.0423 9.25311 70.0423 11.0035C70.0423 12.7538 69.2581 14.4326 67.8622 15.6707C66.4652 16.908 64.5711 17.6029 62.5961 17.6029C60.6212 17.6029 58.7271 16.908 57.3301 15.6707C55.9341 14.4326 55.15 12.7538 55.15 11.0035C55.15 9.25311 55.9341 7.57436 57.3301 6.33621C58.7271 5.09898 60.6212 4.404 62.5961 4.404C64.5711 4.404 66.4652 5.09898 67.8622 6.33621ZM36.5408 2.6516e-06C38.1698 0.000379687 39.7827 0.28515 41.2875 0.83805C42.7924 1.39095 44.1595 2.20115 45.311 3.22239C50.1588 7.51659 50.1588 14.4834 45.311 18.7776C42.9823 20.8399 39.825 21.9983 36.533 21.9983C33.2409 21.9983 30.0836 20.8399 27.7549 18.7776C22.9084 14.4823 22.9084 7.51659 27.7549 3.22123C28.9065 2.20021 30.2737 1.39022 31.7785 0.837517C33.2833 0.284816 34.8962 0.000228005 36.5251 2.6516e-06H36.5408ZM41.799 6.3339C43.1954 7.5721 43.9798 9.25109 43.9798 11.0017C43.9798 12.7524 43.1954 14.4314 41.799 15.6696C40.402 16.9068 38.5079 17.6018 36.533 17.6018C34.558 17.6018 32.6639 16.9068 31.2669 15.6696C29.8709 14.4314 29.0868 12.7527 29.0868 11.0023C29.0868 9.25195 29.8709 7.57321 31.2669 6.33505C32.6639 5.09783 34.558 4.40284 36.533 4.40284C38.5079 4.40284 40.402 5.09783 41.799 6.33505V6.3339Z" fill="#191A23"/>
</svg>
